<?xml version="1.0" encoding="utf-8"?>
<!-- Generator: Adobe Illustrator 16.0.4, SVG Export Plug-In . SVG Version: 6.00 Build 0)  -->
<!DOCTYPE svg PUBLIC "-//W3C//DTD SVG 1.1//EN" "http://www.w3.org/Graphics/SVG/1.1/DTD/svg11.dtd">
<svg version="1.1" id="Layer_1" xmlns="http://www.w3.org/2000/svg" xmlns:xlink="http://www.w3.org/1999/xlink" x="0px" y="0px"
	 width="999.864px" height="963.952px" viewBox="0 0 999.864 963.952" enable-background="new 0 0 999.864 963.952"
	 xml:space="preserve">
<g id="mSkG8B.tif">
	<g>
		<path fill="transparent" d="M999.864,416c0,182.635,0,365.27,0,547.952c-333.242,0-666.485,0-999.864,0C0,642.666,0,321.333,0,0
			c110.237,0,220.55,0,330.864,0c-8.145,1.354-16.378,2.317-24.418,4.135c-29.308,6.625-55.967,18.249-76.159,41.633
			c-0.237,0.274-0.825,0.245-1.541,0.435c-1.133-11.793,1.98-22.652,5.319-33.65c-41.777,30.3-67.527,70.814-78.203,121.909
			c-5.826-13.236-7.461-26.593-7.501-40.521c-38.778,33.373-27.405,163.805,16.798,190.975c-4.187-16.883-5.241-33.532-2.891-50.323
			c2.342-16.734,6.905-32.77,15.251-49.104c13.351,44.354,39.65,76.198,80.145,96.78c0-1.929,0.167-3.262-0.024-4.542
			c-3.881-25.901-1.648-51.439,4.295-76.8c0.617-2.63,0.684-5.607,0.156-8.254c-4.518-22.645-2.902-44.59,8.691-64.862
			c15.361-26.858,38.554-40.769,69.873-37.601c29.481,2.982,48.162,20.541,57.323,47.974c11.676,34.968,6.062,68.368-11.925,99.872
			c-3.066,5.37-2.458,8.408,1.142,12.849c15.175,18.721,32.822,34.938,50.535,51.12c9.055,8.272,18.037,16.625,27.232,25.108
			c0.874-1.039,1.634-1.885,2.331-2.78c15.964-20.509,28.248-43.101,37.974-67.137c16.509-40.801,23.268-82.584,11.573-125.892
			C498.174,62.203,454.681,18.672,383.907,3.812c-8.25-1.732-16.69-2.563-25.042-3.812c213.565,0,427.131,0,641,0
			c0,138.333,0,276.667,0,415c-1.268-0.982-2.654-1.845-3.785-2.965c-23.156-22.962-50.01-40.188-80.559-51.53
			c-21.743-8.073-44.172-11.997-67.493-10.747c-19.508,1.045-37.949,6.38-56.284,12.509c-4.703,1.572-9.555,3.072-14.449,3.615
			c-6.614,0.733-10.462-4.797-7.451-10.75c1.9-3.757,4.644-7.462,7.902-10.077c6.205-4.979,13.04-9.175,19.635-13.665
			c1.438-0.978,2.967-1.82,4.453-2.726c-2.26-0.526-4.24-0.424-6.188-0.116c-21.162,3.347-39.16,13.567-55.829,26.326
			c-12.56,9.613-24.562,19.95-37.056,29.652c-3.886,3.017-8.325,5.691-12.937,7.315c-6.981,2.46-11.126-1.655-8.636-8.613
			c2.107-5.89,5.33-11.419,8.418-16.907c2.286-4.064,5.146-7.806,8.182-12.333c-39.715,18.304-107.176,104.443-107.367,136.647
			c0.592-0.555,1.109-0.959,1.531-1.445c27.951-32.115,62.25-55.499,100.9-72.674c30.838-13.705,62.817-22.82,97.04-21.521
			c1.588,0.061,3.171,0.279,4.755,0.425c-2.75,1.397-5.377,1.569-7.99,1.859c-2.645,0.293-5.287,0.643-7.914,1.073
			c-31.914,5.227-61.551,16.736-89.318,33.05c-56.523,33.206-101.757,78.563-140.203,131.134c-0.523,0.717-0.799,1.613-1.357,2.775
			c14.028,3.818,24.498,12.613,35.039,21.318c10.578,8.736,21.222,17.393,32.105,26.303c1.139-2.524,1.955-4.332,2.77-6.141
			c22.337-49.596,49.996-95.904,85.521-137.251c23.462-27.306,53.58-40.816,89.475-41.636c21.379-0.488,41.168,4.632,58.503,16.866
			c5.399-3.236,10.349-6.638,15.664-9.313c23.602-11.877,48.92-18.012,74.934-21.407C961.265,411.521,980.688,410.814,999.864,416z
			 M101.183,832.881c0.624-0.066,1.247-0.133,1.87-0.199c3.565,5.186,6.853,10.59,10.742,15.519
			c22.883,29.001,52.163,49.657,85.5,64.905c46.332,21.19,94.671,25.402,144.494,16.945c56.65-9.615,104.113-36.361,143.98-77.234
			c30.432-31.2,53.457-67.484,72.98-106.204c1.975-3.916,1.385-5.987-1.825-8.665c-17.013-14.194-33.796-28.663-50.769-42.904
			c-9.266-7.775-18.751-15.287-28.359-23.098c-1.199,2.086-2.083,3.665-3.005,5.222c-22.953,38.747-52.046,71.642-91.329,94.524
			c-22.317,13.001-46.271,19.459-72.289,14.944c-35.901-6.229-61.688-26.467-78.17-58.403
			c-18.553-35.947-19.505-73.828-9.627-112.281c10.269-39.975,31.691-73.72,59.582-103.653c3.452-3.704,6.995-7.323,11.114-11.627
			c-35.05-11.364-61.476,3.2-86.267,25.999c1.237-25.843,8.003-48.645,23.013-70.056c-24.205,9.552-44.934,22.168-65.028,35.862
			c-20.051,13.666-39.434,28.197-56.438,46.217c0.235-9.858,0.625-19.596,2.091-29.168c2.289-14.943,5.574-29.734,7.909-44.672
			c1.224-7.832,1.751-15.935-4.789-22.588c-17.845,17.108-33.821,35.408-48.312,54.983c-21.057,28.444-39.998,58.137-52.609,91.448
			c-1.188,3.138-2.076,6.39-3.103,9.587c13.947-10.535,27.566-20.688,43.989-29.415c-1.16,2.927-1.7,4.413-2.331,5.86
			c-9.628,22.097-16.088,45.109-19.178,68.986c-4.417,34.136-3.154,68.131,3.945,101.828c7.613,36.139,20.217,70.284,41.455,100.828
			c6.742,9.696,14.279,18.719,23.571,25.887C103.047,859.027,102.115,845.954,101.183,832.881z M387.52,473.099
			c-0.842,1.874-1.292,2.72-1.612,3.613c-6.457,17.951-1.348,37.858,13.535,50.782c8.794,7.638,18.24,14.521,27.131,22.053
			c8.282,7.015,13.487,15.791,14.637,26.92c1.058,10.232,1.845,20.64,4.408,30.541c5.12,19.777,18.965,33.496,34.249,46.067
			c29.454,24.228,58.802,48.585,88.008,73.108c14.328,12.032,23.836,27.392,24.979,46.198c1.034,17.031,0.537,34.242-0.523,51.297
			c-2.346,37.683,10.299,68.187,41.229,90.491c7.966,5.744,16.631,10.172,27.531,13.32c-13.028-14.904-18.369-31.216-18.345-49.461
			c0.024-18.514,5.904-34.609,19.335-48.879c1.057,6.609,1.547,12.218,2.881,17.617c11.125,45.012,36.233,78.582,80.461,95.453
			c30.127,11.493,61.021,10.439,91.766,2.178c23.895-6.421,45.979-16.643,64.465-33.525c3.629-3.314,6.605-7.344,9.883-11.045
			c-31.596,7.266-84.744-4.602-93.725-21.413c3.478,0.236,6.951,0.544,10.432,0.697c39.988,1.769,75.278-9.728,104.393-37.767
			c41.864-40.318,46.033-102.523,9.088-147.317c-29.972-36.338-70.008-49.929-116.197-47.612c0.911,0.676,1.934,1.081,2.979,1.408
			c12.913,4.039,23.617,11.457,32.372,21.639c22.235,25.861,18.785,61.67-8.271,82.422c-19.309,14.811-41.809,19.802-65.727,19.312
			c-5.174-0.106-10.335-0.91-15.107-1.355c5.349-6.891,11.146-12.799,15.12-19.75c16.548-28.955,11.657-72.939-10.875-99.363
			c-5.052-5.926-11.245-10.879-16.912-16.279c-0.46,0.39-0.919,0.779-1.378,1.168c0.329,1.417,0.662,2.833,0.986,4.251
			c7.119,31.032-15.219,59.849-45.878,58.885c-13.896-0.437-25.556-6.662-36.073-15.338c-36.365-29.995-72.812-59.89-109.063-90.022
			c-11.224-9.329-23.627-15.401-38.257-16.535c-8.622-0.668-17.264-1.1-25.885-1.783c-10.304-0.816-15.721-5.112-18.671-15.102
			c-1.36-4.605-2.28-9.364-3.079-14.107c-3.807-22.608-12.504-30.84-35.06-32.985c-6.294-0.599-12.594-1.146-18.877-1.845
			C404.747,508.462,390.216,495.188,387.52,473.099z M202.777,428.756c21.822-29.506,103.994-53.812,131.231-39.324
			c-30.451,2.632-59.574,9.732-86.748,27.074c8.627,2,15.939,3.561,23.176,5.412c7.146,1.828,14.218,3.95,21.322,5.943
			c-13.646,7.296-25.459,16.127-35.737,26.918c-10.296,10.81-18.983,22.728-24.294,38.038c18.249-10.885,36.889-13.382,56.36-9.798
			c35.265,6.492,52.448,37.096,39.697,70.518c-4.077,10.686-10.38,19.901-19.852,26.758c0.17,0.533,0.34,1.066,0.51,1.599
			c11.799-1.522,23.599-3.046,36.953-4.769c-4.78,6.717-8.589,13.166-13.485,18.645c-4.941,5.528-10.96,10.094-16.477,15.053
			c31.447,0.918,78.411-26.22,83.382-48.445c-2.338,0.459-4.559,1.071-6.818,1.311c-14.603,1.542-24.651-1.936-22.195-19.988
			c1.292-9.496,3.229-18.902,4.851-28.21c-1.274,1.093-2.737,2.419-4.275,3.651c-3.908,3.131-8.148,5.675-13.231,3.197
			c-4.912-2.395-6.651-7.075-6.27-12.141c0.447-5.929,1.047-11.989,2.735-17.648c2.484-8.328,5.989-16.351,9.189-24.847
			c-14.467-4.372-29.428-5.559-44.599-6.278c2.041-1.109,4.135-1.903,6.286-2.487c22.442-6.089,45.377-9.102,68.549-9.558
			c10.226-0.202,20.625,0.919,30.703,2.767c10.818,1.983,14.301,7.998,11.276,18.592c-2.292,8.029-5.952,15.668-9.054,23.612
			c0.195,0.034,0.82,0.273,1.426,0.231c13.551-0.944,26.928,0.349,40.103,3.467c20.353,4.817,29.958,14.988,31.861,34.446
			c0.547,5.59-0.734,11.359-1.181,17.09c34.693-16.784,57.517-72.936,50.316-108.454c-11.943,16.835-20.877,24.46-30.548,25.784
			c0.679-13.216-6.622-20.885-17.942-25.903c-1.117-0.495-2.057-3.139-1.847-4.61c2.005-14.047-0.129-27.563-4.99-40.704
			c-9.233-24.963-25.581-45.035-44.418-63.224c-19.046-18.391-39.085-35.797-57.498-54.791
			c-24.932-25.719-45.071-54.324-45.463-92.597c-1.59,2.208-2.963,4.422-3.984,6.788c-7.295,16.905-9.255,34.637-7.612,52.803
			c0.792,8.763,3.497,16.625,10.502,22.931c15.839,14.256,31.321,28.915,46.82,43.545c18.112,17.097,35.044,35.192,46.569,57.614
			c2.258,4.393,4.126,8.985,6.175,13.485c-5.406-6.198-9.756-12.905-14.763-19.079c-17.51-21.591-38.906-39.231-59.425-57.748
			c-19.181-17.308-38.223-34.743-53.829-55.504c-11.105-14.774-20.079-30.686-23.893-48.948c-1.704-8.158-2.197-16.568-3.412-26.232
			c-2.695,5.189-5.19,9.277-7.02,13.644c-6.827,16.294-9.847,33.486-10.887,50.996c-0.97,16.323-0.664,32.609,3.849,48.563
			c1.11,3.926,3.123,6.55,6.542,8.833c18.474,12.335,33.635,27.709,42.732,48.357c1.28,2.907,2.122,6.007,3.167,9.018
			c-20.739-24.318-25.179-28.349-49.586-42.917c-12.434-7.421-25.125-14.412-37.541-21.863
			c-24.956-14.977-48.135-31.844-61.204-60.703c-6.421,25.7-3.606,48.898,9.422,71.604c-24.328-6.44-48.255-7.837-73.625-6.941
			c2.268,1.41,3.417,2.075,4.517,2.815c14.515,9.778,27.506,21.177,36.378,36.478c7.221,12.452,5.89,19.508-5.972,27.691
			c-9.968,6.876-20.63,12.804-31.259,18.653c-21.435,11.796-43.372,22.748-62.181,38.741c-1.712,1.456-3.33,3.024-6.022,5.482
			c2.789-0.389,4.08-0.535,5.359-0.751c14.799-2.505,29.574-4.352,44.688-2.589c19.349,2.256,33.296,12.685,36.09,29.729
			c1.423,8.682,0.826,17.908-0.231,26.723c-1.026,8.554-3.812,16.896-5.845,25.42c34.214-29.175,71.422-52.648,115.247-64.887
			c-6.833-1.837-13.714-3.481-20.665-4.733C217.708,430.812,210.467,429.904,202.777,428.756z"/>
		<path fill="#fff" fill-rule="evenodd" clip-rule="evenodd" d="M358.864,0c8.352,1.249,16.792,2.08,25.042,3.812
			c70.774,14.859,114.268,58.39,132.932,127.511c11.694,43.308,4.936,85.091-11.573,125.892
			c-9.726,24.036-22.01,46.628-37.974,67.137c-0.697,0.895-1.457,1.741-2.331,2.78c-9.195-8.483-18.177-16.836-27.232-25.108
			c-17.713-16.181-35.36-32.398-50.535-51.12c-3.6-4.441-4.208-7.479-1.142-12.849c17.987-31.503,23.602-64.904,11.925-99.872
			c-9.161-27.434-27.841-44.992-57.323-47.974c-31.318-3.168-54.512,10.743-69.873,37.601
			c-11.593,20.271-13.209,42.217-8.691,64.862c0.528,2.646,0.461,5.624-0.156,8.254c-5.943,25.361-8.176,50.898-4.295,76.8
			c0.191,1.28,0.024,2.613,0.024,4.542c-40.495-20.582-66.794-52.426-80.145-96.78c-8.346,16.334-12.909,32.37-15.251,49.104
			c-2.35,16.791-1.295,33.44,2.891,50.323c-44.204-27.17-55.576-157.602-16.798-190.975c0.041,13.929,1.675,27.285,7.501,40.521
			c10.676-51.095,36.426-91.609,78.203-121.909c-3.338,10.998-6.452,21.857-5.319,33.65c0.716-0.19,1.304-0.161,1.541-0.435
			c20.192-23.384,46.851-35.008,76.159-41.633c8.04-1.818,16.273-2.78,24.418-4.135C340.198,0,349.531,0,358.864,0z"/>
		<path fill="#fff" fill-rule="evenodd" clip-rule="evenodd" d="M999.864,416c-19.176-5.186-38.6-4.479-57.989-1.948
			c-26.014,3.396-51.332,9.53-74.934,21.407c-5.315,2.675-10.265,6.077-15.664,9.313c-17.335-12.233-37.124-17.354-58.503-16.866
			c-35.895,0.82-66.013,14.33-89.475,41.636c-35.525,41.347-63.185,87.655-85.521,137.251c-0.814,1.809-1.631,3.616-2.77,6.141
			c-10.884-8.91-21.527-17.566-32.105-26.303c-10.541-8.705-21.011-17.5-35.039-21.318c0.559-1.162,0.834-2.059,1.357-2.775
			c38.446-52.57,83.68-97.928,140.203-131.134c27.768-16.313,57.404-27.823,89.318-33.05c2.627-0.43,5.27-0.779,7.914-1.073
			c2.613-0.29,5.24-0.461,7.99-1.859c-1.584-0.146-3.167-0.364-4.755-0.425c-34.223-1.3-66.202,7.816-97.04,21.521
			c-38.65,17.175-72.949,40.559-100.9,72.674c-0.422,0.486-0.939,0.891-1.531,1.445c0.191-32.204,67.652-118.343,107.367-136.647
			c-3.035,4.528-5.896,8.269-8.182,12.333c-3.088,5.488-6.311,11.017-8.418,16.907c-2.49,6.958,1.654,11.073,8.636,8.613
			c4.611-1.625,9.051-4.298,12.937-7.315c12.493-9.702,24.496-20.039,37.056-29.652c16.669-12.759,34.667-22.979,55.829-26.326
			c1.947-0.308,3.928-0.41,6.188,0.116c-1.486,0.905-3.016,1.748-4.453,2.726c-6.595,4.489-13.43,8.685-19.635,13.665
			c-3.259,2.615-6.002,6.32-7.902,10.077c-3.011,5.952,0.837,11.482,7.451,10.75c4.895-0.542,9.746-2.042,14.449-3.615
			c18.335-6.129,36.776-11.464,56.284-12.509c23.321-1.25,45.75,2.674,67.493,10.747c30.549,11.342,57.402,28.568,80.559,51.53
			c1.131,1.121,2.518,1.983,3.785,2.965C999.864,415.333,999.864,415.667,999.864,416z"/>
		<path fill="#fff" fill-rule="evenodd" clip-rule="evenodd" d="M101.183,832.881c0.933,13.073,1.865,26.146,2.809,39.377
			c-9.292-7.168-16.829-16.19-23.571-25.887c-21.238-30.544-33.842-64.689-41.455-100.828c-7.099-33.697-8.361-67.692-3.945-101.828
			c3.089-23.877,9.549-46.89,19.178-68.986c0.63-1.447,1.17-2.934,2.331-5.86c-16.423,8.727-30.042,18.88-43.989,29.415
			c1.027-3.197,1.915-6.449,3.103-9.587c12.612-33.312,31.553-63.004,52.609-91.448c14.491-19.575,30.467-37.875,48.312-54.983
			c6.54,6.653,6.013,14.756,4.789,22.588c-2.334,14.938-5.62,29.729-7.909,44.672c-1.466,9.572-1.855,19.31-2.091,29.168
			c17.004-18.02,36.387-32.551,56.438-46.217c20.094-13.694,40.823-26.311,65.028-35.862c-15.01,21.411-21.776,44.213-23.013,70.056
			c24.791-22.799,51.217-37.363,86.267-25.999c-4.119,4.304-7.662,7.923-11.114,11.627c-27.891,29.934-49.313,63.679-59.582,103.653
			c-9.877,38.453-8.925,76.334,9.627,112.281c16.482,31.937,42.269,52.174,78.17,58.403c26.018,4.515,49.971-1.943,72.289-14.944
			c39.282-22.883,68.376-55.777,91.329-94.524c0.922-1.557,1.806-3.136,3.005-5.222c9.608,7.811,19.093,15.322,28.359,23.098
			c16.973,14.241,33.756,28.71,50.769,42.904c3.21,2.678,3.8,4.749,1.825,8.665c-19.523,38.72-42.549,75.004-72.98,106.204
			c-39.867,40.873-87.33,67.619-143.98,77.234c-49.823,8.457-98.162,4.245-144.494-16.945c-33.337-15.248-62.617-35.904-85.5-64.905
			c-3.889-4.929-7.177-10.333-10.742-15.519C102.429,832.748,101.806,832.814,101.183,832.881z"/>
		<path fill="#fff" fill-rule="evenodd" clip-rule="evenodd" d="M387.52,473.099c2.696,22.089,17.228,35.363,40.351,37.936
			c6.283,0.699,12.583,1.246,18.877,1.845c22.556,2.146,31.253,10.377,35.06,32.985c0.799,4.743,1.718,9.502,3.079,14.107
			c2.95,9.989,8.367,14.285,18.671,15.102c8.621,0.684,17.263,1.115,25.885,1.783c14.63,1.134,27.033,7.206,38.257,16.535
			c36.251,30.133,72.698,60.027,109.063,90.022c10.518,8.676,22.177,14.901,36.073,15.338c30.659,0.964,52.997-27.853,45.878-58.885
			c-0.324-1.418-0.657-2.834-0.986-4.251c0.459-0.389,0.918-0.778,1.378-1.168c5.667,5.4,11.86,10.354,16.912,16.279
			c22.532,26.424,27.423,70.408,10.875,99.363c-3.974,6.951-9.771,12.859-15.12,19.75c4.772,0.445,9.934,1.249,15.107,1.355
			c23.918,0.489,46.418-4.502,65.727-19.312c27.057-20.752,30.507-56.561,8.271-82.422c-8.755-10.182-19.459-17.6-32.372-21.639
			c-1.046-0.327-2.068-0.732-2.979-1.408c46.189-2.316,86.226,11.274,116.197,47.612c36.945,44.794,32.776,106.999-9.088,147.317
			c-29.114,28.039-64.404,39.535-104.393,37.767c-3.48-0.153-6.954-0.461-10.431-0.702c8.979,16.816,62.128,28.684,93.724,21.418
			c-3.277,3.701-6.254,7.73-9.883,11.045c-18.486,16.883-40.57,27.104-64.465,33.525c-30.744,8.262-61.639,9.315-91.766-2.178
			c-44.228-16.871-69.336-50.441-80.461-95.453c-1.334-5.399-1.824-11.008-2.881-17.617c-13.431,14.27-19.311,30.365-19.335,48.879
			c-0.024,18.245,5.316,34.557,18.345,49.461c-10.9-3.148-19.565-7.576-27.531-13.32c-30.93-22.305-43.574-52.809-41.229-90.491
			c1.061-17.055,1.558-34.266,0.523-51.297c-1.143-18.807-10.65-34.166-24.979-46.198c-29.206-24.523-58.555-48.881-88.008-73.108
			c-15.284-12.571-29.129-26.29-34.249-46.067c-2.563-9.901-3.351-20.309-4.408-30.541c-1.15-11.129-6.355-19.905-14.637-26.92
			c-8.891-7.531-18.336-14.415-27.131-22.053c-14.883-12.924-19.992-32.831-13.535-50.782
			C386.228,475.819,386.678,474.973,387.52,473.099z"/>
		<path fill="#fff" fill-rule="evenodd" clip-rule="evenodd" d="M202.777,428.756c7.69,1.148,14.932,2.057,22.104,3.348
			c6.951,1.252,13.832,2.896,20.665,4.733c-43.825,12.239-81.033,35.712-115.247,64.887c2.034-8.523,4.819-16.866,5.845-25.42
			c1.058-8.815,1.655-18.042,0.231-26.723c-2.794-17.045-16.742-27.473-36.09-29.729c-15.113-1.762-29.888,0.084-44.688,2.589
			c-1.279,0.216-2.57,0.363-5.359,0.751c2.693-2.458,4.31-4.026,6.022-5.482c18.809-15.994,40.746-26.945,62.181-38.741
			c10.629-5.849,21.291-11.777,31.259-18.653c11.862-8.184,13.193-15.239,5.972-27.691c-8.873-15.301-21.864-26.699-36.378-36.478
			c-1.099-0.74-2.249-1.405-4.517-2.815c25.37-0.896,49.298,0.501,73.625,6.941c-13.028-22.705-15.844-45.904-9.422-71.604
			c13.069,28.859,36.249,45.727,61.204,60.703c12.416,7.451,25.107,14.441,37.541,21.863c24.407,14.569,28.848,18.599,49.586,42.917
			c-1.045-3.011-1.887-6.111-3.167-9.018c-9.097-20.648-24.258-36.022-42.732-48.357c-3.419-2.283-5.432-4.906-6.542-8.833
			c-4.513-15.954-4.819-32.241-3.849-48.563c1.041-17.509,4.061-34.701,10.887-50.996c1.829-4.366,4.324-8.454,7.02-13.644
			c1.215,9.664,1.708,18.074,3.412,26.232c3.814,18.262,12.787,34.174,23.893,48.948c15.606,20.761,34.648,38.196,53.829,55.504
			c20.52,18.517,41.916,36.156,59.425,57.748c5.007,6.174,9.357,12.881,14.763,19.079c-2.048-4.5-3.917-9.093-6.175-13.485
			c-11.525-22.422-28.458-40.518-46.569-57.614c-15.499-14.63-30.98-29.289-46.82-43.545c-7.005-6.306-9.709-14.168-10.502-22.931
			c-1.643-18.166,0.317-35.897,7.612-52.803c1.021-2.366,2.394-4.58,3.984-6.788c0.392,38.272,20.531,66.878,45.463,92.597
			c18.413,18.993,38.451,36.4,57.498,54.791c18.838,18.189,35.185,38.261,44.418,63.224c4.861,13.141,6.996,26.657,4.99,40.704
			c-0.209,1.471,0.73,4.115,1.847,4.61c11.32,5.018,18.621,12.687,17.942,25.903c9.671-1.323,18.604-8.949,30.548-25.784
			c7.2,35.518-15.623,91.669-50.316,108.454c0.447-5.73,1.729-11.5,1.181-17.09c-1.904-19.458-11.509-29.629-31.861-34.446
			c-13.175-3.118-26.552-4.411-40.103-3.467c-0.605,0.042-1.23-0.197-1.426-0.231c3.103-7.943,6.762-15.583,9.054-23.612
			c3.025-10.594-0.458-16.609-11.276-18.592c-10.078-1.848-20.478-2.968-30.703-2.767c-23.172,0.456-46.106,3.469-68.549,9.558
			c-2.151,0.583-4.245,1.377-6.286,2.487c15.171,0.719,30.131,1.906,44.599,6.278c-3.2,8.496-6.705,16.519-9.189,24.847
			c-1.688,5.659-2.288,11.72-2.735,17.648c-0.381,5.065,1.358,9.746,6.27,12.141c5.083,2.478,9.324-0.066,13.231-3.197
			c1.538-1.232,3.001-2.559,4.275-3.651c-1.622,9.308-3.56,18.714-4.851,28.21c-2.456,18.053,7.593,21.53,22.195,19.988
			c2.26-0.239,4.48-0.852,6.818-1.311c-4.971,22.226-51.935,49.363-83.382,48.445c5.517-4.959,11.536-9.524,16.477-15.053
			c4.896-5.479,8.705-11.928,13.485-18.645c-13.354,1.723-25.154,3.246-36.953,4.769c-0.17-0.532-0.34-1.065-0.51-1.599
			c9.472-6.856,15.775-16.072,19.852-26.758c12.751-33.422-4.432-64.025-39.697-70.518c-19.472-3.584-38.112-1.087-56.36,9.798
			c5.311-15.31,13.998-27.229,24.294-38.038c10.277-10.791,22.091-19.622,35.737-26.918c-7.104-1.993-14.175-4.115-21.322-5.943
			c-7.237-1.851-14.549-3.412-23.176-5.412c27.174-17.342,56.297-24.442,86.748-27.074
			C306.771,374.943,224.599,399.25,202.777,428.756z M394.275,382.528c5.968,28.525,21.523,47.559,44.104,45.045
			C429.937,406.566,415.88,391.491,394.275,382.528z"/>
	</g>
</g>
</svg>
